<?xml version="1.0" encoding="UTF-8"?>
<!DOCTYPE svg PUBLIC "-//W3C//DTD SVG 1.1//EN" "http://www.w3.org/Graphics/SVG/1.1/DTD/svg11.dtd">
<svg width="427mm" height="240mm" viewBox="0 0 42700 24000" version="1.1" xmlns="http://www.w3.org/2000/svg" xmlns:xlink="http://www.w3.org/1999/xlink" stroke-width="28.222" stroke-linejoin="round" xml:space="preserve">
 <path fill="rgb(255,255,255)" stroke="none" d="M 21335,24001 L 0,24001 0,0 42670,0 42670,24001 21335,24001 Z"/>
 <path fill="none" stroke="rgb(179,179,179)" stroke-linejoin="round" d="M 20766,16842 L 2321,16842 2321,1901 39210,1901 39210,16842 20766,16842 Z"/>
 <path fill="none" stroke="rgb(179,179,179)" stroke-linejoin="round" d="M 39210,16841 L 2321,16841"/>
 <path fill="none" stroke="rgb(179,179,179)" stroke-linejoin="round" d="M 39210,15180 L 2321,15180"/>
 <path fill="none" stroke="rgb(179,179,179)" stroke-linejoin="round" d="M 39210,13520 L 2321,13520"/>
 <path fill="none" stroke="rgb(179,179,179)" stroke-linejoin="round" d="M 39210,11861 L 2321,11861"/>
 <path fill="none" stroke="rgb(179,179,179)" stroke-linejoin="round" d="M 39210,10201 L 2321,10201"/>
 <path fill="none" stroke="rgb(179,179,179)" stroke-linejoin="round" d="M 39210,8540 L 2321,8540"/>
 <path fill="none" stroke="rgb(179,179,179)" stroke-linejoin="round" d="M 39210,6880 L 2321,6880"/>
 <path fill="none" stroke="rgb(179,179,179)" stroke-linejoin="round" d="M 39210,5220 L 2321,5220"/>
 <path fill="none" stroke="rgb(179,179,179)" stroke-linejoin="round" d="M 39210,3560 L 2321,3560"/>
 <path fill="none" stroke="rgb(179,179,179)" stroke-linejoin="round" d="M 39210,1900 L 2321,1900"/>
 <path fill="none" stroke="rgb(179,179,179)" stroke-linejoin="round" d="M 2321,16991 L 2321,16841"/>
 <path fill="none" stroke="rgb(179,179,179)" stroke-linejoin="round" d="M 2321,16991 L 2321,16841"/>
 <path fill="none" stroke="rgb(179,179,179)" stroke-linejoin="round" d="M 3266,16991 L 3266,16841"/>
 <path fill="none" stroke="rgb(179,179,179)" stroke-linejoin="round" d="M 3266,16991 L 3266,16841"/>
 <path fill="none" stroke="rgb(179,179,179)" stroke-linejoin="round" d="M 4212,16991 L 4212,16841"/>
 <path fill="none" stroke="rgb(179,179,179)" stroke-linejoin="round" d="M 4212,16991 L 4212,16841"/>
 <path fill="none" stroke="rgb(179,179,179)" stroke-linejoin="round" d="M 5158,16991 L 5158,16841"/>
 <path fill="none" stroke="rgb(179,179,179)" stroke-linejoin="round" d="M 5158,16991 L 5158,16841"/>
 <path fill="none" stroke="rgb(179,179,179)" stroke-linejoin="round" d="M 6104,16991 L 6104,16841"/>
 <path fill="none" stroke="rgb(179,179,179)" stroke-linejoin="round" d="M 6104,16991 L 6104,16841"/>
 <path fill="none" stroke="rgb(179,179,179)" stroke-linejoin="round" d="M 7050,16991 L 7050,16841"/>
 <path fill="none" stroke="rgb(179,179,179)" stroke-linejoin="round" d="M 7050,16991 L 7050,16841"/>
 <path fill="none" stroke="rgb(179,179,179)" stroke-linejoin="round" d="M 7996,16991 L 7996,16841"/>
 <path fill="none" stroke="rgb(179,179,179)" stroke-linejoin="round" d="M 7996,16991 L 7996,16841"/>
 <path fill="none" stroke="rgb(179,179,179)" stroke-linejoin="round" d="M 8942,16991 L 8942,16841"/>
 <path fill="none" stroke="rgb(179,179,179)" stroke-linejoin="round" d="M 8942,16991 L 8942,16841"/>
 <path fill="none" stroke="rgb(179,179,179)" stroke-linejoin="round" d="M 9888,16991 L 9888,16841"/>
 <path fill="none" stroke="rgb(179,179,179)" stroke-linejoin="round" d="M 9888,16991 L 9888,16841"/>
 <path fill="none" stroke="rgb(179,179,179)" stroke-linejoin="round" d="M 10834,16991 L 10834,16841"/>
 <path fill="none" stroke="rgb(179,179,179)" stroke-linejoin="round" d="M 10834,16991 L 10834,16841"/>
 <path fill="none" stroke="rgb(179,179,179)" stroke-linejoin="round" d="M 11779,16991 L 11779,16841"/>
 <path fill="none" stroke="rgb(179,179,179)" stroke-linejoin="round" d="M 11779,16991 L 11779,16841"/>
 <path fill="none" stroke="rgb(179,179,179)" stroke-linejoin="round" d="M 12725,16991 L 12725,16841"/>
 <path fill="none" stroke="rgb(179,179,179)" stroke-linejoin="round" d="M 12725,16991 L 12725,16841"/>
 <path fill="none" stroke="rgb(179,179,179)" stroke-linejoin="round" d="M 13671,16991 L 13671,16841"/>
 <path fill="none" stroke="rgb(179,179,179)" stroke-linejoin="round" d="M 13671,16991 L 13671,16841"/>
 <path fill="none" stroke="rgb(179,179,179)" stroke-linejoin="round" d="M 14617,16991 L 14617,16841"/>
 <path fill="none" stroke="rgb(179,179,179)" stroke-linejoin="round" d="M 14617,16991 L 14617,16841"/>
 <path fill="none" stroke="rgb(179,179,179)" stroke-linejoin="round" d="M 15563,16991 L 15563,16841"/>
 <path fill="none" stroke="rgb(179,179,179)" stroke-linejoin="round" d="M 15563,16991 L 15563,16841"/>
 <path fill="none" stroke="rgb(179,179,179)" stroke-linejoin="round" d="M 16509,16991 L 16509,16841"/>
 <path fill="none" stroke="rgb(179,179,179)" stroke-linejoin="round" d="M 16509,16991 L 16509,16841"/>
 <path fill="none" stroke="rgb(179,179,179)" stroke-linejoin="round" d="M 17455,16991 L 17455,16841"/>
 <path fill="none" stroke="rgb(179,179,179)" stroke-linejoin="round" d="M 17455,16991 L 17455,16841"/>
 <path fill="none" stroke="rgb(179,179,179)" stroke-linejoin="round" d="M 18401,16991 L 18401,16841"/>
 <path fill="none" stroke="rgb(179,179,179)" stroke-linejoin="round" d="M 18401,16991 L 18401,16841"/>
 <path fill="none" stroke="rgb(179,179,179)" stroke-linejoin="round" d="M 19347,16991 L 19347,16841"/>
 <path fill="none" stroke="rgb(179,179,179)" stroke-linejoin="round" d="M 19347,16991 L 19347,16841"/>
 <path fill="none" stroke="rgb(179,179,179)" stroke-linejoin="round" d="M 20293,16991 L 20293,16841"/>
 <path fill="none" stroke="rgb(179,179,179)" stroke-linejoin="round" d="M 20293,16991 L 20293,16841"/>
 <path fill="none" stroke="rgb(179,179,179)" stroke-linejoin="round" d="M 21238,16991 L 21238,16841"/>
 <path fill="none" stroke="rgb(179,179,179)" stroke-linejoin="round" d="M 21238,16991 L 21238,16841"/>
 <path fill="none" stroke="rgb(179,179,179)" stroke-linejoin="round" d="M 22183,16991 L 22183,16841"/>
 <path fill="none" stroke="rgb(179,179,179)" stroke-linejoin="round" d="M 22183,16991 L 22183,16841"/>
 <path fill="none" stroke="rgb(179,179,179)" stroke-linejoin="round" d="M 23129,16991 L 23129,16841"/>
 <path fill="none" stroke="rgb(179,179,179)" stroke-linejoin="round" d="M 23129,16991 L 23129,16841"/>
 <path fill="none" stroke="rgb(179,179,179)" stroke-linejoin="round" d="M 24075,16991 L 24075,16841"/>
 <path fill="none" stroke="rgb(179,179,179)" stroke-linejoin="round" d="M 24075,16991 L 24075,16841"/>
 <path fill="none" stroke="rgb(179,179,179)" stroke-linejoin="round" d="M 25021,16991 L 25021,16841"/>
 <path fill="none" stroke="rgb(179,179,179)" stroke-linejoin="round" d="M 25021,16991 L 25021,16841"/>
 <path fill="none" stroke="rgb(179,179,179)" stroke-linejoin="round" d="M 25967,16991 L 25967,16841"/>
 <path fill="none" stroke="rgb(179,179,179)" stroke-linejoin="round" d="M 25967,16991 L 25967,16841"/>
 <path fill="none" stroke="rgb(179,179,179)" stroke-linejoin="round" d="M 26913,16991 L 26913,16841"/>
 <path fill="none" stroke="rgb(179,179,179)" stroke-linejoin="round" d="M 26913,16991 L 26913,16841"/>
 <path fill="none" stroke="rgb(179,179,179)" stroke-linejoin="round" d="M 27859,16991 L 27859,16841"/>
 <path fill="none" stroke="rgb(179,179,179)" stroke-linejoin="round" d="M 27859,16991 L 27859,16841"/>
 <path fill="none" stroke="rgb(179,179,179)" stroke-linejoin="round" d="M 28805,16991 L 28805,16841"/>
 <path fill="none" stroke="rgb(179,179,179)" stroke-linejoin="round" d="M 28805,16991 L 28805,16841"/>
 <path fill="none" stroke="rgb(179,179,179)" stroke-linejoin="round" d="M 29751,16991 L 29751,16841"/>
 <path fill="none" stroke="rgb(179,179,179)" stroke-linejoin="round" d="M 29751,16991 L 29751,16841"/>
 <path fill="none" stroke="rgb(179,179,179)" stroke-linejoin="round" d="M 30696,16991 L 30696,16841"/>
 <path fill="none" stroke="rgb(179,179,179)" stroke-linejoin="round" d="M 30696,16991 L 30696,16841"/>
 <path fill="none" stroke="rgb(179,179,179)" stroke-linejoin="round" d="M 31642,16991 L 31642,16841"/>
 <path fill="none" stroke="rgb(179,179,179)" stroke-linejoin="round" d="M 31642,16991 L 31642,16841"/>
 <path fill="none" stroke="rgb(179,179,179)" stroke-linejoin="round" d="M 32588,16991 L 32588,16841"/>
 <path fill="none" stroke="rgb(179,179,179)" stroke-linejoin="round" d="M 32588,16991 L 32588,16841"/>
 <path fill="none" stroke="rgb(179,179,179)" stroke-linejoin="round" d="M 33534,16991 L 33534,16841"/>
 <path fill="none" stroke="rgb(179,179,179)" stroke-linejoin="round" d="M 33534,16991 L 33534,16841"/>
 <path fill="none" stroke="rgb(179,179,179)" stroke-linejoin="round" d="M 34480,16991 L 34480,16841"/>
 <path fill="none" stroke="rgb(179,179,179)" stroke-linejoin="round" d="M 34480,16991 L 34480,16841"/>
 <path fill="none" stroke="rgb(179,179,179)" stroke-linejoin="round" d="M 35426,16991 L 35426,16841"/>
 <path fill="none" stroke="rgb(179,179,179)" stroke-linejoin="round" d="M 35426,16991 L 35426,16841"/>
 <path fill="none" stroke="rgb(179,179,179)" stroke-linejoin="round" d="M 36372,16991 L 36372,16841"/>
 <path fill="none" stroke="rgb(179,179,179)" stroke-linejoin="round" d="M 36372,16991 L 36372,16841"/>
 <path fill="none" stroke="rgb(179,179,179)" stroke-linejoin="round" d="M 37318,16991 L 37318,16841"/>
 <path fill="none" stroke="rgb(179,179,179)" stroke-linejoin="round" d="M 37318,16991 L 37318,16841"/>
 <path fill="none" stroke="rgb(179,179,179)" stroke-linejoin="round" d="M 38264,16991 L 38264,16841"/>
 <path fill="none" stroke="rgb(179,179,179)" stroke-linejoin="round" d="M 38264,16991 L 38264,16841"/>
 <path fill="none" stroke="rgb(179,179,179)" stroke-linejoin="round" d="M 39210,16991 L 39210,16841"/>
 <path fill="none" stroke="rgb(179,179,179)" stroke-linejoin="round" d="M 39210,16991 L 39210,16841"/>
 <path fill="none" stroke="rgb(179,179,179)" stroke-linejoin="round" d="M 2321,16841 L 39210,16841"/>
 <path fill="none" stroke="rgb(179,179,179)" stroke-linejoin="round" d="M 2171,16841 L 2321,16841"/>
 <path fill="none" stroke="rgb(179,179,179)" stroke-linejoin="round" d="M 2171,16841 L 2321,16841"/>
 <path fill="none" stroke="rgb(179,179,179)" stroke-linejoin="round" d="M 2171,15180 L 2321,15180"/>
 <path fill="none" stroke="rgb(179,179,179)" stroke-linejoin="round" d="M 2171,15180 L 2321,15180"/>
 <path fill="none" stroke="rgb(179,179,179)" stroke-linejoin="round" d="M 2171,13520 L 2321,13520"/>
 <path fill="none" stroke="rgb(179,179,179)" stroke-linejoin="round" d="M 2171,13520 L 2321,13520"/>
 <path fill="none" stroke="rgb(179,179,179)" stroke-linejoin="round" d="M 2171,11861 L 2321,11861"/>
 <path fill="none" stroke="rgb(179,179,179)" stroke-linejoin="round" d="M 2171,11861 L 2321,11861"/>
 <path fill="none" stroke="rgb(179,179,179)" stroke-linejoin="round" d="M 2171,10201 L 2321,10201"/>
 <path fill="none" stroke="rgb(179,179,179)" stroke-linejoin="round" d="M 2171,10201 L 2321,10201"/>
 <path fill="none" stroke="rgb(179,179,179)" stroke-linejoin="round" d="M 2171,8540 L 2321,8540"/>
 <path fill="none" stroke="rgb(179,179,179)" stroke-linejoin="round" d="M 2171,8540 L 2321,8540"/>
 <path fill="none" stroke="rgb(179,179,179)" stroke-linejoin="round" d="M 2171,6880 L 2321,6880"/>
 <path fill="none" stroke="rgb(179,179,179)" stroke-linejoin="round" d="M 2171,6880 L 2321,6880"/>
 <path fill="none" stroke="rgb(179,179,179)" stroke-linejoin="round" d="M 2171,5220 L 2321,5220"/>
 <path fill="none" stroke="rgb(179,179,179)" stroke-linejoin="round" d="M 2171,5220 L 2321,5220"/>
 <path fill="none" stroke="rgb(179,179,179)" stroke-linejoin="round" d="M 2171,3560 L 2321,3560"/>
 <path fill="none" stroke="rgb(179,179,179)" stroke-linejoin="round" d="M 2171,3560 L 2321,3560"/>
 <path fill="none" stroke="rgb(179,179,179)" stroke-linejoin="round" d="M 2171,1900 L 2321,1900"/>
 <path fill="none" stroke="rgb(179,179,179)" stroke-linejoin="round" d="M 2171,1900 L 2321,1900"/>
 <path fill="none" stroke="rgb(179,179,179)" stroke-linejoin="round" d="M 2321,16841 L 2321,1900"/>
 <path fill="rgb(0,69,134)" stroke="none" d="M 38421,16841 L 38737,16841 38737,16093 38421,16093 38421,16841 Z"/>
 <path fill="rgb(0,69,134)" stroke="none" d="M 37475,16841 L 37791,16841 37791,12026 37475,12026 37475,16841 Z"/>
 <path fill="rgb(0,69,134)" stroke="none" d="M 36529,16841 L 36845,16841 36845,15197 36529,15197 36529,16841 Z"/>
 <path fill="rgb(0,69,134)" stroke="none" d="M 35584,16841 L 35899,16841 35899,15230 35584,15230 35584,16841 Z"/>
 <path fill="rgb(0,69,134)" stroke="none" d="M 34638,16841 L 34953,16841 34953,15180 34638,15180 34638,16841 Z"/>
 <path fill="rgb(0,69,134)" stroke="none" d="M 33692,16841 L 34007,16841 34007,14649 33692,14649 33692,16841 Z"/>
 <path fill="rgb(0,69,134)" stroke="none" d="M 32746,16841 L 33061,16841 33061,15263 32746,15263 32746,16841 Z"/>
 <path fill="rgb(0,69,134)" stroke="none" d="M 31800,16841 L 32115,16841 32115,15263 31800,15263 31800,16841 Z"/>
 <path fill="rgb(0,69,134)" stroke="none" d="M 30854,16841 L 31169,16841 31169,14931 30854,14931 30854,16841 Z"/>
 <path fill="rgb(0,69,134)" stroke="none" d="M 29908,16841 L 30223,16841 30223,10533 29908,10533 29908,16841 Z"/>
 <path fill="rgb(0,69,134)" stroke="none" d="M 28962,16841 L 29278,16841 29278,13188 28962,13188 28962,16841 Z"/>
 <path fill="rgb(0,69,134)" stroke="none" d="M 28016,16841 L 28332,16841 28332,14317 28016,14317 28016,16841 Z"/>
 <path fill="rgb(0,69,134)" stroke="none" d="M 27070,16841 L 27386,16841 27386,15097 27070,15097 27070,16841 Z"/>
 <path fill="rgb(0,69,134)" stroke="none" d="M 26125,16841 L 26440,16841 26440,15761 26125,15761 26125,16841 Z"/>
 <path fill="rgb(0,69,134)" stroke="none" d="M 25179,16841 L 25494,16841 25494,14865 25179,14865 25179,16841 Z"/>
 <path fill="rgb(0,69,134)" stroke="none" d="M 24233,16841 L 24548,16841 24548,15147 24233,15147 24233,16841 Z"/>
 <path fill="rgb(0,69,134)" stroke="none" d="M 23287,16841 L 23602,16841 23602,10699 23287,10699 23287,16841 Z"/>
 <path fill="rgb(0,69,134)" stroke="none" d="M 22341,16841 L 22656,16841 22656,15853 22341,15853 22341,16841 Z"/>
 <path fill="rgb(0,69,134)" stroke="none" d="M 21395,16841 L 21710,16841 21710,14184 21395,14184 21395,16841 Z"/>
 <path fill="rgb(0,69,134)" stroke="none" d="M 20450,16841 L 20766,16841 20766,15197 20450,15197 20450,16841 Z"/>
 <path fill="rgb(0,69,134)" stroke="none" d="M 19504,16841 L 19820,16841 19820,15097 19504,15097 19504,16841 Z"/>
 <path fill="rgb(0,69,134)" stroke="none" d="M 18558,16841 L 18874,16841 18874,14765 18558,14765 18558,16841 Z"/>
 <path fill="rgb(0,69,134)" stroke="none" d="M 17613,16841 L 17928,16841 17928,14765 17613,14765 17613,16841 Z"/>
 <path fill="rgb(0,69,134)" stroke="none" d="M 16667,16841 L 16982,16841 16982,15097 16667,15097 16667,16841 Z"/>
 <path fill="rgb(0,69,134)" stroke="none" d="M 15721,16841 L 16036,16841 16036,13852 15721,13852 15721,16841 Z"/>
 <path fill="rgb(0,69,134)" stroke="none" d="M 14775,16841 L 15090,16841 15090,14699 14775,14699 14775,16841 Z"/>
 <path fill="rgb(0,69,134)" stroke="none" d="M 13829,16841 L 14144,16841 14144,14450 13829,14450 13829,16841 Z"/>
 <path fill="rgb(0,69,134)" stroke="none" d="M 12883,16841 L 13198,16841 13198,13985 12883,13985 12883,16841 Z"/>
 <path fill="rgb(0,69,134)" stroke="none" d="M 11937,16841 L 12252,16841 12252,14350 11937,14350 11937,16841 Z"/>
 <path fill="rgb(0,69,134)" stroke="none" d="M 10991,16841 L 11307,16841 11307,13188 10991,13188 10991,16841 Z"/>
 <path fill="rgb(0,69,134)" stroke="none" d="M 10045,16841 L 10361,16841 10361,12524 10045,12524 10045,16841 Z"/>
 <path fill="rgb(0,69,134)" stroke="none" d="M 9099,16841 L 9415,16841 9415,13188 9099,13188 9099,16841 Z"/>
 <path fill="rgb(0,69,134)" stroke="none" d="M 8154,16841 L 8469,16841 8469,11446 8154,11446 8154,16841 Z"/>
 <path fill="rgb(0,69,134)" stroke="none" d="M 7208,16841 L 7523,16841 7523,11031 7208,11031 7208,16841 Z"/>
 <path fill="rgb(0,69,134)" stroke="none" d="M 6262,16841 L 6577,16841 6577,10217 6262,10217 6262,16841 Z"/>
 <path fill="rgb(0,69,134)" stroke="none" d="M 5316,16841 L 5631,16841 5631,9038 5316,9038 5316,16841 Z"/>
 <path fill="rgb(0,69,134)" stroke="none" d="M 4370,16841 L 4685,16841 4685,8208 4370,8208 4370,16841 Z"/>
 <path fill="rgb(0,69,134)" stroke="none" d="M 3424,16841 L 3739,16841 3739,7046 3424,7046 3424,16841 Z"/>
 <path fill="rgb(0,69,134)" stroke="none" d="M 2478,16841 L 2793,16841 2793,4888 2478,4888 2478,16841 Z"/>
 <path fill="rgb(255,66,14)" stroke="none" d="M 38737,16841 L 39052,16841 39052,16841 38737,16841 Z"/>
 <path fill="rgb(255,66,14)" stroke="none" d="M 37791,16841 L 38106,16841 38106,16841 37791,16841 Z"/>
 <path fill="rgb(255,66,14)" stroke="none" d="M 36845,16841 L 37160,16841 37160,16841 36845,16841 Z"/>
 <path fill="rgb(255,66,14)" stroke="none" d="M 35899,16841 L 36214,16841 36214,16841 35899,16841 Z"/>
 <path fill="rgb(255,66,14)" stroke="none" d="M 34953,16841 L 35268,16841 35268,16841 34953,16841 Z"/>
 <path fill="rgb(255,66,14)" stroke="none" d="M 34007,16841 L 34322,16841 34322,16841 34007,16841 Z"/>
 <path fill="rgb(255,66,14)" stroke="none" d="M 33061,16841 L 33376,16841 33376,16841 33061,16841 Z"/>
 <path fill="rgb(255,66,14)" stroke="none" d="M 32115,16841 L 32431,16841 32431,16841 32115,16841 Z"/>
 <path fill="rgb(255,66,14)" stroke="none" d="M 31169,16841 L 31485,16841 31485,16841 31169,16841 Z"/>
 <path fill="rgb(255,66,14)" stroke="none" d="M 30223,16841 L 30539,16841 30539,16841 30223,16841 Z"/>
 <path fill="rgb(255,66,14)" stroke="none" d="M 29278,16841 L 29593,16841 29593,16841 29278,16841 Z"/>
 <path fill="rgb(255,66,14)" stroke="none" d="M 28332,16841 L 28647,16841 28647,16841 28332,16841 Z"/>
 <path fill="rgb(255,66,14)" stroke="none" d="M 27386,16841 L 27701,16841 27701,16841 27386,16841 Z"/>
 <path fill="rgb(255,66,14)" stroke="none" d="M 26440,16841 L 26755,16841 26755,16841 26440,16841 Z"/>
 <path fill="rgb(255,66,14)" stroke="none" d="M 25494,16841 L 25809,16841 25809,16841 25494,16841 Z"/>
 <path fill="rgb(255,66,14)" stroke="none" d="M 24548,16841 L 24863,16841 24863,16841 24548,16841 Z"/>
 <path fill="rgb(255,66,14)" stroke="none" d="M 23602,16841 L 23917,16841 23917,16841 23602,16841 Z"/>
 <path fill="rgb(255,66,14)" stroke="none" d="M 22656,16841 L 22972,16841 22972,15846 22656,15846 22656,16841 Z"/>
 <path fill="rgb(255,66,14)" stroke="none" d="M 21710,16841 L 22026,16841 22026,15180 21710,15180 21710,16841 Z"/>
 <path fill="rgb(255,66,14)" stroke="none" d="M 20766,16841 L 21081,16841 21081,15031 20766,15031 20766,16841 Z"/>
 <path fill="rgb(255,66,14)" stroke="none" d="M 19820,16841 L 20135,16841 20135,14881 19820,14881 19820,16841 Z"/>
 <path fill="rgb(255,66,14)" stroke="none" d="M 18874,16841 L 19189,16841 19189,14765 18874,14765 18874,16841 Z"/>
 <path fill="rgb(255,66,14)" stroke="none" d="M 17928,16841 L 18243,16841 18243,14699 17928,14699 17928,16841 Z"/>
 <path fill="rgb(255,66,14)" stroke="none" d="M 16982,16841 L 17297,16841 17297,14699 16982,14699 16982,16841 Z"/>
 <path fill="rgb(255,66,14)" stroke="none" d="M 16036,16841 L 16351,16841 16351,14350 16036,14350 16036,16841 Z"/>
 <path fill="rgb(255,66,14)" stroke="none" d="M 15090,16841 L 15405,16841 15405,14101 15090,14101 15090,16841 Z"/>
 <path fill="rgb(255,66,14)" stroke="none" d="M 14144,16841 L 14460,16841 14460,14051 14144,14051 14144,16841 Z"/>
 <path fill="rgb(255,66,14)" stroke="none" d="M 13198,16841 L 13514,16841 13514,13885 13198,13885 13198,16841 Z"/>
 <path fill="rgb(255,66,14)" stroke="none" d="M 12252,16841 L 12568,16841 12568,13520 12252,13520 12252,16841 Z"/>
 <path fill="rgb(255,66,14)" stroke="none" d="M 11307,16841 L 11622,16841 11622,12707 11307,12707 11307,16841 Z"/>
 <path fill="rgb(255,66,14)" stroke="none" d="M 10361,16841 L 10676,16841 10676,12192 10361,12192 10361,16841 Z"/>
 <path fill="rgb(255,66,14)" stroke="none" d="M 9415,16841 L 9730,16841 9730,11529 9415,11529 9415,16841 Z"/>
 <path fill="rgb(255,66,14)" stroke="none" d="M 8469,16841 L 8784,16841 8784,11446 8469,11446 8469,16841 Z"/>
 <path fill="rgb(255,66,14)" stroke="none" d="M 7523,16841 L 7838,16841 7838,11031 7523,11031 7523,16841 Z"/>
 <path fill="rgb(255,66,14)" stroke="none" d="M 6577,16841 L 6892,16841 6892,10699 6577,10699 6577,16841 Z"/>
 <path fill="rgb(255,66,14)" stroke="none" d="M 5631,16841 L 5946,16841 5946,7378 5631,7378 5631,16841 Z"/>
 <path fill="rgb(255,66,14)" stroke="none" d="M 4685,16841 L 5001,16841 5001,5386 4685,5386 4685,16841 Z"/>
 <path fill="rgb(255,66,14)" stroke="none" d="M 3739,16841 L 4055,16841 4055,4058 3739,4058 3739,16841 Z"/>
 <path fill="rgb(255,66,14)" stroke="none" d="M 2793,16841 L 3109,16841 3109,4058 2793,4058 2793,16841 Z"/>
 <text class="SVGTextShape" transform="rotate(-44.9 1511 18681)"><tspan class="TextParagraph" font-family="DejaVu Sans, sans-serif" font-size="353px" font-weight="400"><tspan class="TextPosition" x="1511" y="18681"><tspan fill="rgb(0,0,0)" stroke="none">آناناس طلایی</tspan></tspan></tspan></text>
 <text class="SVGTextShape" transform="rotate(-44.9 2681 18457)"><tspan class="TextParagraph" font-family="DejaVu Sans, sans-serif" font-size="353px" font-weight="400"><tspan class="TextPosition" x="2681" y="18457"><tspan fill="rgb(0,0,0)" stroke="none">زنجبیل تازه</tspan></tspan></tspan></text>
 <text class="SVGTextShape" transform="rotate(-44.9 3609 18475)"><tspan class="TextParagraph" font-family="DejaVu Sans, sans-serif" font-size="353px" font-weight="400"><tspan class="TextPosition" x="3609" y="18475"><tspan fill="rgb(0,0,0)" stroke="none">توت فرنگی</tspan></tspan></tspan></text>
 <text class="SVGTextShape" transform="rotate(-44.9 5097 17933)"><tspan class="TextParagraph" font-family="DejaVu Sans, sans-serif" font-size="353px" font-weight="400"><tspan class="TextPosition" x="5097" y="17933"><tspan fill="rgb(0,0,0)" stroke="none">زردآلو</tspan></tspan></tspan></text>
 <text class="SVGTextShape" transform="rotate(-44.9 2321 21655)"><tspan class="TextParagraph" font-family="DejaVu Sans, sans-serif" font-size="353px" font-weight="400"><tspan class="TextPosition" x="2321" y="21655"><tspan fill="rgb(0,0,0)" stroke="none">گوجه سبز دورشهری ( شهریار، ساوه و ... )</tspan></tspan></tspan></text>
 <text class="SVGTextShape" transform="rotate(-44.9 5193 19729)"><tspan class="TextParagraph" font-family="DejaVu Sans, sans-serif" font-size="353px" font-weight="400"><tspan class="TextPosition" x="5193" y="19729"><tspan fill="rgb(0,0,0)" stroke="none">نارگیل انواع هر کیلوگرم</tspan></tspan></tspan></text>
 <text class="SVGTextShape" transform="rotate(-44.9 3127 22742)"><tspan class="TextParagraph" font-family="DejaVu Sans, sans-serif" font-size="353px" font-weight="400"><tspan class="TextPosition" x="3127" y="22742"><tspan fill="rgb(0,0,0)" stroke="none">موز آمریکای جنوبی ( کارتن بزرگ ) و خوشه‌ای سازی </tspan></tspan><tspan class="TextPosition" x="2996" y="22872"><tspan fill="rgb(0,0,0)" stroke="none">۴</tspan></tspan><tspan class="TextPosition" x="2735" y="23134"><tspan fill="rgb(0,0,0)" stroke="none"> و </tspan></tspan><tspan class="TextPosition" x="2604" y="23265"><tspan fill="rgb(0,0,0)" stroke="none">۵</tspan></tspan></tspan></text>
 <text class="SVGTextShape" transform="rotate(-44.9 8133 18681)"><tspan class="TextParagraph" font-family="DejaVu Sans, sans-serif" font-size="353px" font-weight="400"><tspan class="TextPosition" x="8133" y="18681"><tspan fill="rgb(0,0,0)" stroke="none">هلو پیش رس</tspan></tspan></tspan></text>
 <text class="SVGTextShape" transform="rotate(-44.9 5767 21993)"><tspan class="TextParagraph" font-family="DejaVu Sans, sans-serif" font-size="353px" font-weight="400"><tspan class="TextPosition" x="5767" y="21993"><tspan fill="rgb(0,0,0)" stroke="none">لیمو ترش انواع ( سنگی، پرشین لایم، مینایی )</tspan></tspan></tspan></text>
 <text class="SVGTextShape" transform="rotate(-44.9 11185 17521)"><tspan class="TextParagraph" font-family="DejaVu Sans, sans-serif" font-size="353px" font-weight="400"><tspan class="TextPosition" x="11185" y="17521"><tspan fill="rgb(0,0,0)" stroke="none">به</tspan></tspan></tspan></text>
 <text class="SVGTextShape" transform="rotate(-44.9 11344 18307)"><tspan class="TextParagraph" font-family="DejaVu Sans, sans-serif" font-size="353px" font-weight="400"><tspan class="TextPosition" x="11344" y="18307"><tspan fill="rgb(0,0,0)" stroke="none">توت سیاه</tspan></tspan></tspan></text>
 <text class="SVGTextShape" transform="rotate(-44.9 11785 18813)"><tspan class="TextParagraph" font-family="DejaVu Sans, sans-serif" font-size="353px" font-weight="400"><tspan class="TextPosition" x="11785" y="18813"><tspan fill="rgb(0,0,0)" stroke="none">سیب زرد لبنان</tspan></tspan></tspan></text>
 <text class="SVGTextShape" transform="rotate(-44.9 13724 17820)"><tspan class="TextParagraph" font-family="DejaVu Sans, sans-serif" font-size="353px" font-weight="400"><tspan class="TextPosition" x="13724" y="17820"><tspan fill="rgb(0,0,0)" stroke="none">کیوی</tspan></tspan></tspan></text>
 <text class="SVGTextShape" transform="rotate(-44.9 13508 18981)"><tspan class="TextParagraph" font-family="DejaVu Sans, sans-serif" font-size="353px" font-weight="400"><tspan class="TextPosition" x="13508" y="18981"><tspan fill="rgb(0,0,0)" stroke="none">سیب قرمز لبنان</tspan></tspan></tspan></text>
 <text class="SVGTextShape" transform="rotate(-44.9 14324 19111)"><tspan class="TextParagraph" font-family="DejaVu Sans, sans-serif" font-size="353px" font-weight="400"><tspan class="TextPosition" x="14324" y="19111"><tspan fill="rgb(0,0,0)" stroke="none">گوجه سبز شمالی</tspan></tspan></tspan></text>
 <text class="SVGTextShape" transform="rotate(-44.9 15869 18513)"><tspan class="TextParagraph" font-family="DejaVu Sans, sans-serif" font-size="353px" font-weight="400"><tspan class="TextPosition" x="15869" y="18513"><tspan fill="rgb(0,0,0)" stroke="none">خربزه انواع</tspan></tspan></tspan></text>
 <text class="SVGTextShape" transform="rotate(-44.9 16815 18513)"><tspan class="TextParagraph" font-family="DejaVu Sans, sans-serif" font-size="353px" font-weight="400"><tspan class="TextPosition" x="16815" y="18513"><tspan fill="rgb(0,0,0)" stroke="none">طالبی انواع</tspan></tspan></tspan></text>
 <text class="SVGTextShape" transform="rotate(-44.9 17892 18381)"><tspan class="TextParagraph" font-family="DejaVu Sans, sans-serif" font-size="353px" font-weight="400"><tspan class="TextPosition" x="17892" y="18381"><tspan fill="rgb(0,0,0)" stroke="none">طالبی جانا</tspan></tspan></tspan></text>
 <text class="SVGTextShape" transform="rotate(-44.9 18537 18681)"><tspan class="TextParagraph" font-family="DejaVu Sans, sans-serif" font-size="353px" font-weight="400"><tspan class="TextPosition" x="18537" y="18681"><tspan fill="rgb(0,0,0)" stroke="none">خیار گلخانه‌ای</tspan></tspan></tspan></text>
 <text class="SVGTextShape" transform="rotate(-44.9 18697 19467)"><tspan class="TextParagraph" font-family="DejaVu Sans, sans-serif" font-size="353px" font-weight="400"><tspan class="TextPosition" x="18697" y="19467"><tspan fill="rgb(0,0,0)" stroke="none">خربزه ملون و دستنبو</tspan></tspan></tspan></text>
 <text class="SVGTextShape" transform="rotate(-44.9 20540 18569)"><tspan class="TextParagraph" font-family="DejaVu Sans, sans-serif" font-size="353px" font-weight="400"><tspan class="TextPosition" x="20540" y="18569"><tspan fill="rgb(0,0,0)" stroke="none">نارنگی انواع</tspan></tspan></tspan></text>
 <text class="SVGTextShape" transform="rotate(-44.9 20814 19242)"><tspan class="TextParagraph" font-family="DejaVu Sans, sans-serif" font-size="353px" font-weight="400"><tspan class="TextPosition" x="20814" y="19242"><tspan fill="rgb(0,0,0)" stroke="none">هندوانه انواع بالای </tspan></tspan><tspan class="TextPosition" x="20683" y="19372"><tspan fill="rgb(0,0,0)" stroke="none">۳</tspan></tspan><tspan class="TextPosition" x="19822" y="20233"><tspan fill="rgb(0,0,0)" stroke="none"> کیلوگرم</tspan></tspan></tspan></text>
 <text class="SVGTextShape" transform="rotate(-44.9 22507 18495)"><tspan class="TextParagraph" font-family="DejaVu Sans, sans-serif" font-size="353px" font-weight="400"><tspan class="TextPosition" x="22507" y="18495"><tspan fill="rgb(0,0,0)" stroke="none">ازگیل ژاپنی</tspan></tspan></tspan></text>
 <text class="SVGTextShape" transform="rotate(-44.9 23230 18718)"><tspan class="TextParagraph" font-family="DejaVu Sans, sans-serif" font-size="353px" font-weight="400"><tspan class="TextPosition" x="23230" y="18718"><tspan fill="rgb(0,0,0)" stroke="none">پرتقال آبگیری</tspan></tspan></tspan></text>
 <text class="SVGTextShape" transform="rotate(-44.9 21948 20945)"><tspan class="TextParagraph" font-family="DejaVu Sans, sans-serif" font-size="353px" font-weight="400"><tspan class="TextPosition" x="21948" y="20945"><tspan fill="rgb(0,0,0)" stroke="none">پرتقال تامسون شمال واکس خورده</tspan></tspan></tspan></text>
 <text class="SVGTextShape" transform="rotate(-44.9 23549 20291)"><tspan class="TextParagraph" font-family="DejaVu Sans, sans-serif" font-size="353px" font-weight="400"><tspan class="TextPosition" x="23549" y="20291"><tspan fill="rgb(0,0,0)" stroke="none">پرتقال تامسون شمال درشت</tspan></tspan></tspan></text>
 <text class="SVGTextShape" transform="rotate(-44.9 22176 22610)"><tspan class="TextParagraph" font-family="DejaVu Sans, sans-serif" font-size="353px" font-weight="400"><tspan class="TextPosition" x="22176" y="22610"><tspan fill="rgb(0,0,0)" stroke="none">پرتقال تامسون شمال نایلون پیچ و غیر واکس خورده</tspan></tspan></tspan></text>
 <text class="SVGTextShape" transform="rotate(-44.9 26414 19317)"><tspan class="TextParagraph" font-family="DejaVu Sans, sans-serif" font-size="353px" font-weight="400"><tspan class="TextPosition" x="26414" y="19317"><tspan fill="rgb(0,0,0)" stroke="none">پرتقال توسرخ انواع</tspan></tspan></tspan></text>
 <text class="SVGTextShape" transform="rotate(-44.9 28314 18363)"><tspan class="TextParagraph" font-family="DejaVu Sans, sans-serif" font-size="353px" font-weight="400"><tspan class="TextPosition" x="28314" y="18363"><tspan fill="rgb(0,0,0)" stroke="none">توت سفید</tspan></tspan></tspan></text>
 <text class="SVGTextShape" transform="rotate(-44.9 29203 18419)"><tspan class="TextParagraph" font-family="DejaVu Sans, sans-serif" font-size="353px" font-weight="400"><tspan class="TextPosition" x="29203" y="18419"><tspan fill="rgb(0,0,0)" stroke="none">چغاله بادام</tspan></tspan></tspan></text>
 <text class="SVGTextShape" transform="rotate(-44.9 29382 19187)"><tspan class="TextParagraph" font-family="DejaVu Sans, sans-serif" font-size="353px" font-weight="400"><tspan class="TextPosition" x="29382" y="19187"><tspan fill="rgb(0,0,0)" stroke="none">خربزه بذر مشهدی</tspan></tspan></tspan></text>
 <text class="SVGTextShape" transform="rotate(-44.9 29935 19579)"><tspan class="TextParagraph" font-family="DejaVu Sans, sans-serif" font-size="353px" font-weight="400"><tspan class="TextPosition" x="29935" y="19579"><tspan fill="rgb(0,0,0)" stroke="none">خیار کوتاه بذر اصفهان</tspan></tspan></tspan></text>
 <text class="SVGTextShape" transform="rotate(-44.9 28580 21881)"><tspan class="TextParagraph" font-family="DejaVu Sans, sans-serif" font-size="353px" font-weight="400"><tspan class="TextPosition" x="28580" y="21881"><tspan fill="rgb(0,0,0)" stroke="none">سیب سایر انواع ( شفیع‌آبادی، مشهدی و ... )</tspan></tspan></tspan></text>
 <text class="SVGTextShape" transform="rotate(-44.9 31247 20159)"><tspan class="TextParagraph" font-family="DejaVu Sans, sans-serif" font-size="353px" font-weight="400"><tspan class="TextPosition" x="31247" y="20159"><tspan fill="rgb(0,0,0)" stroke="none">سیب سبز ( گرانی اسمیت )</tspan></tspan></tspan></text>
 <text class="SVGTextShape" transform="rotate(-44.9 34438 17915)"><tspan class="TextParagraph" font-family="DejaVu Sans, sans-serif" font-size="353px" font-weight="400"><tspan class="TextPosition" x="34438" y="17915"><tspan fill="rgb(0,0,0)" stroke="none">گرمک</tspan></tspan></tspan></text>
 <text class="SVGTextShape" transform="rotate(-44.9 34767 18531)"><tspan class="TextParagraph" font-family="DejaVu Sans, sans-serif" font-size="353px" font-weight="400"><tspan class="TextPosition" x="34767" y="18531"><tspan fill="rgb(0,0,0)" stroke="none">گریپ فروت</tspan></tspan></tspan></text>
 <text class="SVGTextShape" transform="rotate(-44.9 35750 18495)"><tspan class="TextParagraph" font-family="DejaVu Sans, sans-serif" font-size="353px" font-weight="400"><tspan class="TextPosition" x="35750" y="18495"><tspan fill="rgb(0,0,0)" stroke="none">لیمو شیرین</tspan></tspan></tspan></text>
 <text class="SVGTextShape" transform="rotate(-44.9 36472 18719)"><tspan class="TextParagraph" font-family="DejaVu Sans, sans-serif" font-size="353px" font-weight="400"><tspan class="TextPosition" x="36472" y="18719"><tspan fill="rgb(0,0,0)" stroke="none">موز سایزهای </tspan></tspan><tspan class="TextPosition" x="36341" y="18849"><tspan fill="rgb(0,0,0)" stroke="none">۶</tspan></tspan><tspan class="TextPosition" x="35836" y="19354"><tspan fill="rgb(0,0,0)" stroke="none"> الی </tspan></tspan><tspan class="TextPosition" x="35705" y="19485"><tspan fill="rgb(0,0,0)" stroke="none">۹</tspan></tspan></tspan></text>
 <text class="SVGTextShape" transform="rotate(-44.9 37043 19094)"><tspan class="TextParagraph" font-family="DejaVu Sans, sans-serif" font-size="353px" font-weight="400"><tspan class="TextPosition" x="37043" y="19094"><tspan fill="rgb(0,0,0)" stroke="none">هندوانه انواع زیر </tspan></tspan><tspan class="TextPosition" x="36913" y="19224"><tspan fill="rgb(0,0,0)" stroke="none">۳</tspan></tspan><tspan class="TextPosition" x="36052" y="20085"><tspan fill="rgb(0,0,0)" stroke="none"> کیلوگرم</tspan></tspan></tspan></text>
 <text class="SVGTextShape"><tspan class="TextParagraph" font-family="DejaVu Sans, sans-serif" font-size="353px" font-weight="400"><tspan class="TextPosition" x="1516" y="16962"><tspan fill="rgb(0,0,0)" stroke="none">٠٠٠</tspan></tspan></tspan></text>
 <text class="SVGTextShape"><tspan class="TextParagraph" font-family="DejaVu Sans, sans-serif" font-size="353px" font-weight="400"><tspan class="TextPosition" x="855" y="15301"><tspan fill="rgb(0,0,0)" stroke="none">١٠٠٬٠٠٠</tspan></tspan></tspan></text>
 <text class="SVGTextShape"><tspan class="TextParagraph" font-family="DejaVu Sans, sans-serif" font-size="353px" font-weight="400"><tspan class="TextPosition" x="855" y="13641"><tspan fill="rgb(0,0,0)" stroke="none">٢٠٠٬٠٠٠</tspan></tspan></tspan></text>
 <text class="SVGTextShape"><tspan class="TextParagraph" font-family="DejaVu Sans, sans-serif" font-size="353px" font-weight="400"><tspan class="TextPosition" x="855" y="11981"><tspan fill="rgb(0,0,0)" stroke="none">٣٠٠٬٠٠٠</tspan></tspan></tspan></text>
 <text class="SVGTextShape"><tspan class="TextParagraph" font-family="DejaVu Sans, sans-serif" font-size="353px" font-weight="400"><tspan class="TextPosition" x="855" y="10321"><tspan fill="rgb(0,0,0)" stroke="none">٤٠٠٬٠٠٠</tspan></tspan></tspan></text>
 <text class="SVGTextShape"><tspan class="TextParagraph" font-family="DejaVu Sans, sans-serif" font-size="353px" font-weight="400"><tspan class="TextPosition" x="855" y="8660"><tspan fill="rgb(0,0,0)" stroke="none">٥٠٠٬٠٠٠</tspan></tspan></tspan></text>
 <text class="SVGTextShape"><tspan class="TextParagraph" font-family="DejaVu Sans, sans-serif" font-size="353px" font-weight="400"><tspan class="TextPosition" x="855" y="7000"><tspan fill="rgb(0,0,0)" stroke="none">٦٠٠٬٠٠٠</tspan></tspan></tspan></text>
 <text class="SVGTextShape"><tspan class="TextParagraph" font-family="DejaVu Sans, sans-serif" font-size="353px" font-weight="400"><tspan class="TextPosition" x="855" y="5340"><tspan fill="rgb(0,0,0)" stroke="none">٧٠٠٬٠٠٠</tspan></tspan></tspan></text>
 <text class="SVGTextShape"><tspan class="TextParagraph" font-family="DejaVu Sans, sans-serif" font-size="353px" font-weight="400"><tspan class="TextPosition" x="855" y="3680"><tspan fill="rgb(0,0,0)" stroke="none">٨٠٠٬٠٠٠</tspan></tspan></tspan></text>
 <text class="SVGTextShape"><tspan class="TextParagraph" font-family="DejaVu Sans, sans-serif" font-size="353px" font-weight="400"><tspan class="TextPosition" x="855" y="2020"><tspan fill="rgb(0,0,0)" stroke="none">٩٠٠٬٠٠٠</tspan></tspan></tspan></text>
 <text class="SVGTextShape"><tspan class="TextParagraph" font-family="DejaVu Sans, sans-serif" font-size="459px" font-weight="400"><tspan class="TextPosition" x="16573" y="1177"><tspan fill="rgb(0,0,0)" stroke="none">مقایسه قیمت میوه بازار تهران و شهید شجاعی ( قصر </tspan><tspan fill="rgb(0,0,0)" stroke="none">۱</tspan><tspan fill="rgb(0,0,0)" stroke="none"> )</tspan></tspan></tspan></text>
 <path fill="rgb(0,69,134)" stroke="none" d="M 42239,11857 L 42133,11857 42133,11646 42344,11646 42344,11857 42239,11857 Z"/>
 <path fill="rgb(255,66,14)" stroke="none" d="M 42239,12354 L 42133,12354 42133,12143 42344,12143 42344,12354 42239,12354 Z"/>
 <text class="SVGTextShape"><tspan class="TextParagraph" font-family="DejaVu Sans, sans-serif" font-size="353px" font-weight="400"><tspan class="TextPosition" x="40285" y="11871"><tspan fill="rgb(0,0,0)" stroke="none">قیمت تهران</tspan></tspan></tspan></text>
 <text class="SVGTextShape"><tspan class="TextParagraph" font-family="DejaVu Sans, sans-serif" font-size="353px" font-weight="400"><tspan class="TextPosition" x="40364" y="12368"><tspan fill="rgb(0,0,0)" stroke="none">قیمت قصر </tspan><tspan fill="rgb(0,0,0)" stroke="none">۱</tspan></tspan></tspan></text>
</svg>